/* XPM */
static char *cbf72fb6d11c438cf966a8e0a7722203jsivzWtBGKEkjpu5[] = {
/* columns rows colors chars-per-pixel */
"32 32 136 2 ",
"   c #151616",
".  c #1D1D1D",
"X  c #1F1F20",
"o  c #252525",
"O  c #2B2B2C",
"+  c #2F3133",
"@  c #333334",
"#  c #373839",
"$  c #3B3B3C",
"%  c #3C3E40",
"&  c #3F4042",
"*  c #434444",
"=  c #45474A",
"-  c #46484B",
";  c #4B4B4D",
":  c #4B4E51",
">  c #4E5052",
",  c #525354",
"<  c #535558",
"1  c #56585C",
"2  c #5A5C5D",
"3  c #5D5E62",
"4  c #5F6164",
"5  c #616365",
"6  c #646669",
"7  c #67696C",
"8  c #6A6B6D",
"9  c #6C6E71",
"0  c #6E7174",
"q  c #727476",
"w  c #737679",
"e  c #76787B",
"r  c #797B7D",
"t  c #7C7E81",
"y  c #7E8185",
"u  c #7F8388",
"i  c #818385",
"p  c #83868A",
"a  c #86888D",
"s  c #898B8E",
"d  c #868B93",
"f  c #898D93",
"g  c #8D9195",
"h  c #8D949B",
"j  c #919396",
"k  c #92969C",
"l  c #95989E",
"z  c #9A9C9E",
"x  c #8F96A0",
"c  c #9096A0",
"v  c #9097A1",
"b  c #9097A2",
"n  c #9097A2",
"m  c #9398A1",
"M  c #9198A2",
"N  c #9198A3",
"B  c #9298A3",
"V  c #9399A3",
"C  c #9699A0",
"Z  c #969AA0",
"A  c #969AA1",
"S  c #9499A3",
"D  c #949AA2",
"F  c #949AA3",
"G  c #969BA2",
"H  c #969BA3",
"J  c #9299A4",
"K  c #939AA4",
"L  c #959BA4",
"P  c #949BA5",
"I  c #969BA4",
"U  c #959CA5",
"Y  c #969CA4",
"T  c #969CA5",
"R  c #959CA6",
"E  c #969CA6",
"W  c #969DA6",
"Q  c #979DA6",
"!  c #969DA7",
"~  c #949BA5",
"^  c #989DA3",
"/  c #9A9DA2",
"(  c #9B9EA3",
")  c #9A9EA4",
"_  c #989FA7",
"`  c #999EA4",
"'  c #969EA8",
"]  c #979FA9",
"[  c #979FA9",
"{  c #989FA8",
"}  c #989FA9",
"|  c #989FA9",
" . c #9BA0A5",
".. c #9BA0A6",
"X. c #9CA0A5",
"o. c #9DA2A7",
"O. c #9EA2A7",
"+. c #9DA0A5",
"@. c #99A0A8",
"#. c #99A0A9",
"$. c #9AA0A8",
"%. c #9BA1A9",
"&. c #99A0AA",
"*. c #9AA1AA",
"=. c #9EA3A9",
"-. c #9CA2AA",
";. c #9CA3AA",
":. c #9DA3AB",
">. c #9DA4AC",
",. c #9FA4AC",
"<. c #9EA4AD",
"1. c #9EA4AE",
"2. c #9FA5AE",
"3. c #9CA2AA",
"4. c #A0A2A3",
"5. c #A0A2A5",
"6. c #A3A4A8",
"7. c #A0A4AB",
"8. c #A3A5AA",
"9. c #A2A5AB",
"0. c #A1A5AC",
"q. c #A0A5AD",
"w. c #A1A5AD",
"e. c #A2A6AC",
"r. c #A1A6AE",
"t. c #A3A7AE",
"y. c #A1A5AC",
"u. c #A4A9B1",
"i. c #A5AAB1",
"p. c #A7ABB1",
"a. c #A4A9B2",
"s. c #A4AAB2",
"d. c #A5AAB2",
"f. c #A4A9B0",
"g. c #ACAEB2",
"h. c #A8ADB3",
/* pixels */
"q 6 5 s V %.<.%.] P P 9 4 9 6 3 - & * 2 , ; r y k P ] ] J F y 0 ",
"y 6 w 4 a y y q.J c l p :.7.y w w 7 0 ^ s.s.h z f x E V F w 0 k ",
":.f t q g.o.t w q y < w q.] ] E ] ] ] E x p 2 O 1  .h k $ = s.J ",
"] J x f 2 j k q.l 3 k a 7 l P P E ] V o.5 O a t 8 5 r , = 7 <.] ",
"] P %.i h c k r 0 f E h w < a :.V V k % 1 < V J P w $ 2 p %.J ] ",
"P E e 5 V J _ a : j <.E p : < e k a 7 5 y g E ] E F $ * g J ] ] ",
"E g @ p E ] E E r 1 7 g s t 3 g :.s g E J E ] ] ] E * @ w V J P ",
"y # 1 E ] E c F j 1 4 8 5.V o.a :.f } c E ] ] ] ] k @ - 7 ^ 7.F ",
"f f ^ ] ] q.g r 5 q r k P E q.4 7.j E E ] ] ] ] J a ; q.V %.F 9 ",
"V P ] ] J f w F %.k 6 _ %.J  .7 y a J E ] ] J c y ; F c ] P E 7.",
"] ] ] J <.i E V ] } l 7 l k 0 t s.k E ] ] ] c w . . t V ] ] <.f ",
"E P } k t y P s.s.s.s.y < < k f e w E ] ] ] %.@ 0 k , a P ] ] q.",
"p g h t i z 4.o ; 5 < w s r ] ] <., p x E ] g o f J r 1 J E E %.",
"1 : t s s z e 9 l h 6 y p t =.] %.e 7  ._ E < 2 E E h , a f w ; ",
"_ k e 6 k E P J P p t k f 8 3 f.%._ r j z a ; ^ E ] E u o r 3 3 ",
"J J p 1 _ ] ] ] V w E ] %.<.f j g p 5 +.8.i E P ] ] E %.< P E E ",
"] :.; 0 ] ] ] E h s E ] ] ] E %.y > 6 P E 2 k P ] ] J k ; h E ] ",
"} 6 8 <.] ] ] E a d ] ] ] ] ] ] <.7 6 E E q.1 t V h x l < u h %.",
"l $ p ] ] ] ] } < V ] ] ] ] ] E a > 6 E J E ^ r w 7 6 7 w i O w ",
"$ 7 } ] E E c d 2 %.] ] ] ] ] P k > 2 k a a , g g a p 9 t i * . ",
"6 s %.E E V k 7 F E E ] ] ] ] P F 0 y f e ; + k J J P =.* s h * ",
"* a +.F F a 8 1 g k f d f a g i 2 7.%.h k 9 i :.J E P J g P V f ",
"- r p p f a d d g _ F F F k 9 4 r k f # w F F V E ] ] ] ] E P E ",
"* r 4 4 f E x J J P P J s._ q t i 5 o X t J E ] ] ] ] ] ] P %.^ ",
"F h k w : > 2 = , 6 w w < a q.c V %.s e 5 x P ] ] ] ] ] E e ; @ ",
"V E V h V a 6 3 2 k y 8 a E E ] ] ] k t < d h E ] ] ] ] f $ s.<.",
"E ] ] ] E P V g j h.p %.E ] ] ] ] ] r 1 8 2 ^ x V E E E , e E h ",
"] ] ] ] ] V V 8 j * g J ] E V V k k r :.h a 5 g a f ( a O e d r ",
"] ] ] ] ] J p 2 7 f P ] ] J P 7 < w 9 E E q.5 7 0 u f d d u > # ",
"] ] ] ] J E @ s k V E E %.g 6 8 w a 7 y E J y g V J E ] E J d * ",
"P P E h t g # o 4 f f 3 ; 8 h x V l e 1 f k 7 * e p f F J J <.5 ",
"g g g f p g d 0 w 9 7 o 2 <.V P J V E f r 5 @ $     # 6 o.x <.2 "
};
